<?xml version="1.0" encoding="UTF-8"?>
<svg width="30px" height="27px" viewBox="0 0 30 27" version="1.1" xmlns="http://www.w3.org/2000/svg" xmlns:xlink="http://www.w3.org/1999/xlink">
    <!-- Generator: Sketch 55.2 (78181) - https://sketchapp.com -->
    <title>ear-binaural</title>
    <desc>Created with Sketch.</desc>
    <g id="Page-1" stroke="none" stroke-width="1" fill="none" fill-rule="evenodd">
        <g id="ear-colored" transform="translate(-23.000000, -1.000000)" fill-rule="nonzero">
            <g id="ear-binaural" transform="translate(23.000000, 0.000000)">
                <path d="M21.2,27.5 C20.5,27.5 19.8,27.4 19.1,27.1 C17.3,26.3 16,24.7 16,23.2 L18.2,23.2 C18.2,23.7 18.8,24.6 19.9,25.1 C20.6,25.4 22,25.7 23.5,24.3 C25,22.9 25.3,21.4 25.8,18.8 C26.1,17.4 26.5,15.6 27.1,13.4 C28.4,9.3 27.5,5.8 24.9,4.2 C22.6,2.6 19.5,3 17.3,5 L15.8,3.4 C18.7,0.7 22.9,0.2 26.1,2.2 C29.7,4.4 30.8,8.8 29.3,13.9 C28.7,16 28.3,17.7 28,19.1 C27.4,21.8 27,23.8 25.1,25.7 C24,26.9 22.6,27.5 21.2,27.5 Z" id="Path" fill="#0B6493"></path>
                <path d="M20,21 L19.5,19.4 C21.2,18.8 21.8,16.8 21.3,15.1 C21.1,14.4 20.3,12.2 17.4,12.8 L16.3,13 L16.5,11.9 C17.1,7.6 19.1,6.2 20.3,5.7 C21.7,5.1 23.3,5.4 24.5,6.4 C25.7,7.4 26.3,9.1 26,10.9 L24.4,10.6 C24.6,9.4 24.3,8.4 23.5,7.7 C22.8,7.1 21.8,7 20.9,7.3 C19.7,7.8 18.8,9.1 18.3,11.1 C20.8,11.1 22.4,12.8 23,14.7 C23.5,17 22.7,20 20,21 Z" id="Path" fill="#0B6493"></path>
                <path d="M4.9,25.8 C2.9,23.9 2.5,21.9 2,19.2 C1.7,17.7 1.4,16.1 0.7,14 C-0.9,8.8 0.3,4.4 3.9,2.2 C7.1,0.2 11.4,0.7 14.2,3.4 L12.7,5 C10.5,3 7.4,2.6 5,4.1 C2.3,5.8 1.5,9.2 2.8,13.3 C3.5,15.5 3.8,17.3 4.1,18.7 C4.6,21.3 4.9,22.7 6.4,24.2 C7.8,25.6 9.3,25.3 10,25 C11.1,24.5 11.7,23.6 11.7,23.1 L13.9,23.1 C13.9,24.6 12.6,26.2 10.8,27 C10.1,27.3 9.4,27.4 8.7,27.4 C7.4,27.5 6,26.9 4.9,25.8 Z" id="Path" fill="#D71920"></path>
                <path d="M7.2,14.7 C7.7,12.8 9.4,11 11.9,11.1 C11.5,9.1 10.5,7.8 9.3,7.3 C8.4,6.9 7.4,7.1 6.7,7.7 C5.9,8.4 5.6,9.4 5.8,10.6 L4.2,10.9 C3.9,9.1 4.4,7.5 5.7,6.4 C6.9,5.4 8.5,5.2 9.9,5.7 C11.1,6.2 13.1,7.6 13.7,11.9 L13.9,13 L12.8,12.8 C9.9,12.2 9.1,14.4 8.9,15.1 C8.4,16.7 9,18.8 10.7,19.4 L10,21 C7.3,20 6.5,17 7.2,14.7 Z" id="Path" fill="#D71920"></path>
            </g>
        </g>
    </g>
</svg>