<?xml version="1.0" encoding="UTF-8"?>
<svg width="15px" height="27px" viewBox="0 0 15 27" version="1.1" xmlns="http://www.w3.org/2000/svg" xmlns:xlink="http://www.w3.org/1999/xlink">
    <!-- Generator: Sketch 55.2 (78181) - https://sketchapp.com -->
    <title>ear-right</title>
    <desc>Created with Sketch.</desc>
    <g id="Page-1" stroke="none" stroke-width="1" fill="none" fill-rule="evenodd">
        <g id="ear-colored" transform="translate(0.000000, -1.000000)" fill="#D71920" fill-rule="nonzero">
            <g id="ear-right">
                <g id="Group">
                    <path d="M4.9,25.8 C2.9,23.9 2.5,21.9 2,19.2 C1.7,17.7 1.4,16.1 0.7,14 C-0.9,8.8 0.3,4.4 3.9,2.2 C7.1,0.2 11.4,0.7 14.2,3.4 L12.7,5 C10.5,3 7.4,2.6 5,4.1 C2.3,5.8 1.5,9.2 2.8,13.3 C3.5,15.5 3.8,17.3 4.1,18.7 C4.6,21.3 4.9,22.7 6.4,24.2 C7.8,25.6 9.3,25.3 10,25 C11.1,24.5 11.7,23.6 11.7,23.1 L13.9,23.1 C13.9,24.6 12.6,26.2 10.8,27 C10.1,27.3 9.4,27.4 8.7,27.4 C7.4,27.5 6,26.9 4.9,25.8 Z" id="Path"></path>
                    <path d="M7.2,14.7 C7.7,12.8 9.4,11 11.9,11.1 C11.5,9.1 10.5,7.8 9.3,7.3 C8.4,7 7.5,7.1 6.7,7.7 C5.9,8.4 5.6,9.4 5.8,10.6 L4.2,10.9 C3.9,9.1 4.4,7.5 5.7,6.4 C6.9,5.4 8.5,5.2 9.9,5.7 C11.1,6.2 13.1,7.6 13.7,11.9 L13.9,13 L12.8,12.8 C9.9,12.2 9.1,14.4 8.9,15.1 C8.4,16.7 9,18.8 10.7,19.4 L10,21 C7.3,20 6.5,17 7.2,14.7 Z" id="Path"></path>
                </g>
            </g>
        </g>
    </g>
</svg>