<?xml version="1.0" encoding="utf-8"?>
<!-- Generator: Adobe Illustrator 19.1.0, SVG Export Plug-In . SVG Version: 6.00 Build 0)  -->
<svg version="1.1" id="Layer_1" xmlns="http://www.w3.org/2000/svg" xmlns:xlink="http://www.w3.org/1999/xlink" x="0px" y="0px"
	 width="90px" height="30px" viewBox="-214 136 90 30" style="enable-background:new -214 136 90 30;" xml:space="preserve">
<style type="text/css">
	.st0{fill:#0B6493;}
	.st1{fill:#D71920;}
</style>
<g id="left">
	<g>
		<path class="st0" d="M-138.6,164.5c-0.7,0-1.4-0.1-2.1-0.4c-1.8-0.8-3.1-2.4-3.1-3.9h2.2c0,0.5,0.6,1.4,1.7,1.9
			c0.7,0.3,2.1,0.6,3.6-0.8c1.5-1.4,1.8-2.9,2.3-5.5c0.3-1.4,0.7-3.2,1.3-5.4c1.3-4.1,0.4-7.6-2.2-9.2c-2.3-1.6-5.4-1.2-7.6,0.8
			l-1.5-1.6c2.9-2.7,7.1-3.2,10.3-1.2c3.6,2.2,4.7,6.6,3.2,11.7c-0.6,2.1-1,3.8-1.3,5.2c-0.6,2.7-1,4.7-2.9,6.6
			C-135.8,163.9-137.2,164.5-138.6,164.5z"/>
		<path class="st0" d="M-139.8,158l-0.5-1.6c1.7-0.6,2.3-2.6,1.8-4.3c-0.2-0.7-1-2.9-3.9-2.3l-1.1,0.2l0.2-1.1
			c0.6-4.3,2.6-5.7,3.8-6.2c1.4-0.6,3-0.3,4.2,0.7s1.8,2.7,1.5,4.5l-1.6-0.3c0.2-1.2-0.1-2.2-0.9-2.9c-0.7-0.6-1.7-0.7-2.6-0.4
			c-1.2,0.5-2.1,1.8-2.6,3.8c2.5,0,4.1,1.7,4.7,3.6C-136.3,154-137.1,157-139.8,158z"/>
	</g>
</g>
<g id="right">
	<g>
		<path class="st1" d="M-202.1,162.8c-2-1.9-2.4-3.9-2.9-6.6c-0.3-1.5-0.6-3.1-1.3-5.2c-1.6-5.2-0.4-9.6,3.2-11.8
			c3.2-2,7.5-1.5,10.3,1.2l-1.5,1.6c-2.2-2-5.3-2.4-7.7-0.9c-2.7,1.7-3.5,5.1-2.2,9.2c0.7,2.2,1,4,1.3,5.4c0.5,2.6,0.8,4,2.3,5.5
			c1.4,1.4,2.9,1.1,3.6,0.8c1.1-0.5,1.7-1.4,1.7-1.9h2.2c0,1.5-1.3,3.1-3.1,3.9c-0.7,0.3-1.4,0.4-2.1,0.4
			C-199.6,164.5-201,163.9-202.1,162.8z"/>
		<path class="st1" d="M-199.8,151.7c0.5-1.9,2.2-3.7,4.7-3.6c-0.4-2-1.4-3.3-2.6-3.8c-0.9-0.3-1.8-0.2-2.6,0.4
			c-0.8,0.7-1.1,1.7-0.9,2.9l-1.6,0.3c-0.3-1.8,0.2-3.4,1.5-4.5c1.2-1,2.8-1.2,4.2-0.7c1.2,0.5,3.2,1.9,3.8,6.2l0.2,1.1l-1.1-0.2
			c-2.9-0.6-3.7,1.6-3.9,2.3c-0.5,1.6,0.1,3.7,1.8,4.3l-0.7,1.6C-199.7,157-200.5,154-199.8,151.7z"/>
	</g>
</g>
<g id="binaural-left">
	<path class="st0" d="M-162.8,164.5c-0.7,0-1.4-0.1-2.1-0.4c-1.8-0.8-3.1-2.4-3.1-3.9h2.2c0,0.5,0.6,1.4,1.7,1.9
		c0.7,0.3,2.1,0.6,3.6-0.8c1.5-1.4,1.8-2.9,2.3-5.5c0.3-1.4,0.7-3.2,1.3-5.4c1.3-4.1,0.4-7.6-2.2-9.2c-2.3-1.6-5.4-1.2-7.6,0.8
		l-1.5-1.6c2.9-2.7,7.1-3.2,10.3-1.2c3.6,2.2,4.7,6.6,3.2,11.7c-0.6,2.1-1,3.8-1.3,5.2c-0.6,2.7-1,4.7-2.9,6.6
		C-160,163.9-161.4,164.5-162.8,164.5z"/>
	<path class="st0" d="M-164,158l-0.5-1.6c1.7-0.6,2.3-2.6,1.8-4.3c-0.2-0.7-1-2.9-3.9-2.3l-1.1,0.2l0.2-1.1c0.6-4.3,2.6-5.7,3.8-6.2
		c1.4-0.6,3-0.3,4.2,0.7s1.8,2.7,1.5,4.5l-1.6-0.3c0.2-1.2-0.1-2.2-0.9-2.9c-0.7-0.6-1.7-0.7-2.6-0.4c-1.2,0.5-2.1,1.8-2.6,3.8
		c2.5,0,4.1,1.7,4.7,3.6C-160.5,154-161.3,157-164,158z"/>
</g>
<g id="binaural-right">
	<path class="st1" d="M-179.1,162.8c-2-1.9-2.4-3.9-2.9-6.6c-0.3-1.5-0.6-3.1-1.3-5.2c-1.6-5.2-0.4-9.6,3.2-11.8
		c3.2-2,7.5-1.5,10.3,1.2l-1.5,1.6c-2.2-2-5.3-2.4-7.7-0.9c-2.7,1.7-3.5,5.1-2.2,9.2c0.7,2.2,1,4,1.3,5.4c0.5,2.6,0.8,4,2.3,5.5
		c1.4,1.4,2.9,1.1,3.6,0.8c1.1-0.5,1.7-1.4,1.7-1.9h2.2c0,1.5-1.3,3.1-3.1,3.9c-0.7,0.3-1.4,0.4-2.1,0.4
		C-176.6,164.5-178,163.9-179.1,162.8z"/>
	<path class="st1" d="M-176.8,151.7c0.5-1.9,2.2-3.7,4.7-3.6c-0.4-2-1.4-3.3-2.6-3.8c-0.9-0.4-1.9-0.2-2.6,0.4
		c-0.8,0.7-1.1,1.7-0.9,2.9l-1.6,0.3c-0.3-1.8,0.2-3.4,1.5-4.5c1.2-1,2.8-1.2,4.2-0.7c1.2,0.5,3.2,1.9,3.8,6.2l0.2,1.1l-1.1-0.2
		c-2.9-0.6-3.7,1.6-3.9,2.3c-0.5,1.6,0.1,3.7,1.8,4.3l-0.7,1.6C-176.7,157-177.5,154-176.8,151.7z"/>
</g>
</svg>
