<?xml version="1.0" encoding="utf-8"?>
<svg version="1.1" id="Layer_1" xmlns="http://www.w3.org/2000/svg" xmlns:xlink="http://www.w3.org/1999/xlink" x="0px" y="0px"
	 width="30px" height="30px" viewBox="0 0 30 30" style="enable-background:new 0 0 30 30;" xml:space="preserve">
<symbol id="left">
	<g>
		<path d="M15.4,28.5c-0.7,0-1.4-0.1-2.1-0.4c-1.8-0.8-3.1-2.4-3.1-3.9h2.2c0,0.5,0.6,1.4,1.7,1.9c0.7,0.3,2.1,0.6,3.6-0.8
			c1.5-1.4,1.8-2.9,2.3-5.5c0.3-1.4,0.7-3.2,1.3-5.4c1.3-4.1,0.4-7.6-2.2-9.2C16.8,3.6,13.7,4,11.5,6L10,4.4
			c2.9-2.7,7.1-3.2,10.3-1.2c3.6,2.2,4.7,6.6,3.2,11.7c-0.6,2.1-1,3.8-1.3,5.2c-0.6,2.7-1,4.7-2.9,6.6
			C18.2,27.9,16.8,28.5,15.4,28.5z"/>
		<path d="M14.2,22l-0.5-1.6c1.7-0.6,2.3-2.6,1.8-4.3c-0.2-0.7-1-2.9-3.9-2.3l-1.1,0.2l0.2-1.1c0.6-4.3,2.6-5.7,3.8-6.2
			c1.4-0.6,3-0.3,4.2,0.7c1.2,1,1.8,2.7,1.5,4.5l-1.6-0.3c0.2-1.2-0.1-2.2-0.9-2.9c-0.7-0.6-1.7-0.7-2.6-0.4
			c-1.2,0.5-2.1,1.8-2.6,3.8c2.5,0,4.1,1.7,4.7,3.6C17.7,18,16.9,21,14.2,22z"/>
	</g>
</symbol>
<symbol id="right">
	<g>
		<path d="M11.9,26.8c-2-1.9-2.4-3.9-2.9-6.6c-0.3-1.5-0.6-3.1-1.3-5.2C6.1,9.8,7.3,5.4,10.9,3.2c3.2-2,7.5-1.5,10.3,1.2L19.7,6
			c-2.2-2-5.3-2.4-7.7-0.9c-2.7,1.7-3.5,5.1-2.2,9.2c0.7,2.2,1,4,1.3,5.4c0.5,2.6,0.8,4,2.3,5.5c1.4,1.4,2.9,1.1,3.6,0.8
			c1.1-0.5,1.7-1.4,1.7-1.9h2.2c0,1.5-1.3,3.1-3.1,3.9c-0.7,0.3-1.4,0.4-2.1,0.4C14.4,28.5,13,27.9,11.9,26.8z"/>
		<path d="M14.2,15.7c0.5-1.9,2.2-3.7,4.7-3.6c-0.4-2-1.4-3.3-2.6-3.8c-0.9-0.3-1.8-0.2-2.6,0.4c-0.8,0.7-1.1,1.7-0.9,2.9l-1.6,0.3
			c-0.3-1.8,0.2-3.4,1.5-4.5c1.2-1,2.8-1.2,4.2-0.7c1.2,0.5,3.2,1.9,3.8,6.2l0.2,1.1l-1.1-0.2c-2.9-0.6-3.7,1.6-3.9,2.3
			c-0.5,1.6,0.1,3.7,1.8,4.3L17,22C14.3,21,13.5,18,14.2,15.7z"/>
	</g>
</symbol>
	<symbol id="binaural-left">
		<path d="M21.2,28.5c-0.7,0-1.4-0.1-2.1-0.4c-1.8-0.8-3.1-2.4-3.1-3.9h2.2c0,0.5,0.6,1.4,1.7,1.9c0.7,0.3,2.1,0.6,3.6-0.8
			c1.5-1.4,1.8-2.9,2.3-5.5c0.3-1.4,0.7-3.2,1.3-5.4c1.3-4.1,0.4-7.6-2.2-9.2C22.6,3.6,19.5,4,17.3,6l-1.5-1.6
			c2.9-2.7,7.1-3.2,10.3-1.2c3.6,2.2,4.7,6.6,3.2,11.7c-0.6,2.1-1,3.8-1.3,5.2c-0.6,2.7-1,4.7-2.9,6.6C24,27.9,22.6,28.5,21.2,28.5z
			"/>
		<path d="M20,22l-0.5-1.6c1.7-0.6,2.3-2.6,1.8-4.3c-0.2-0.7-1-2.9-3.9-2.3l-1.1,0.2l0.2-1.1c0.6-4.3,2.6-5.7,3.8-6.2
			c1.4-0.6,3-0.3,4.2,0.7c1.2,1,1.8,2.7,1.5,4.5l-1.6-0.3c0.2-1.2-0.1-2.2-0.9-2.9c-0.7-0.6-1.7-0.7-2.6-0.4
			c-1.2,0.5-2.1,1.8-2.6,3.8c2.5,0,4.1,1.7,4.7,3.6C23.5,18,22.7,21,20,22z"/>
	</symbol>
	<symbol  id="binaural-right">
		<path d="M4.9,26.8c-2-1.9-2.4-3.9-2.9-6.6c-0.3-1.5-0.6-3.1-1.3-5.2C-0.9,9.8,0.3,5.4,3.9,3.2c3.2-2,7.5-1.5,10.3,1.2L12.7,6
			C10.5,4,7.4,3.6,5,5.1c-2.7,1.7-3.5,5.1-2.2,9.2c0.7,2.2,1,4,1.3,5.4c0.5,2.6,0.8,4,2.3,5.5c1.4,1.4,2.9,1.1,3.6,0.8
			c1.1-0.5,1.7-1.4,1.7-1.9h2.2c0,1.5-1.3,3.1-3.1,3.9c-0.7,0.3-1.4,0.4-2.1,0.4C7.4,28.5,6,27.9,4.9,26.8z"/>
		<path d="M7.2,15.7c0.5-1.9,2.2-3.7,4.7-3.6c-0.4-2-1.4-3.3-2.6-3.8C8.4,7.9,7.4,8.1,6.7,8.7c-0.8,0.7-1.1,1.7-0.9,2.9l-1.6,0.3
			c-0.3-1.8,0.2-3.4,1.5-4.5c1.2-1,2.8-1.2,4.2-0.7c1.2,0.5,3.2,1.9,3.8,6.2l0.2,1.1l-1.1-0.2c-2.9-0.6-3.7,1.6-3.9,2.3
			c-0.5,1.6,0.1,3.7,1.8,4.3L10,22C7.3,21,6.5,18,7.2,15.7z"/>
	</symbol>
</svg>
