<?xml version="1.0" encoding="utf-8"?>
<svg version="1.1"  xmlns="http://www.w3.org/2000/svg" xmlns:xlink="http://www.w3.org/1999/xlink" x="0px" y="0px"
	 width="400px" height="300px" viewBox="0 0 400 300" style="enable-background:new 0 0 400 300;" xml:space="preserve">
<symbol id="grid">
	<rect x="11" y="112" width="1" height="3"/>
	<rect x="11" y="106" width="1" height="3"/>
	<rect x="11" y="100" width="1" height="3"/>
	<rect x="11" y="118" width="1" height="3"/>
	<rect x="11" y="148" width="1" height="3"/>
	<rect x="11" y="142" width="1" height="3"/>
	<rect x="11" y="94" width="1" height="3"/>
	<rect x="11" y="28" width="1" height="3"/>
	<rect x="11" y="136" width="1" height="3"/>
	<rect x="11" y="46" width="1" height="3"/>
	<rect x="11" y="40" width="1" height="3"/>
	<rect x="11" y="154" width="1" height="3"/>
	<rect x="11" y="34" width="1" height="3"/>
	<rect x="11" y="52" width="1" height="3"/>
	<rect x="11" y="76" width="1" height="3"/>
	<rect x="11" y="58" width="1" height="3"/>
	<rect x="11" y="70" width="1" height="3"/>
	<rect x="11" y="88" width="1" height="3"/>
	<rect x="11" y="64" width="1" height="3"/>
	<rect x="11" y="130" width="1" height="3"/>
	<rect x="11" y="238" width="1" height="3"/>
	<rect x="11" y="244" width="1" height="3"/>
	<rect x="11" y="226" width="1" height="3"/>
	<rect x="11" y="232" width="1" height="3"/>
	<rect x="11" y="250" width="1" height="3"/>
	<polygon points="12,172 11,172 11,175 13,175 13,174 12,174 	"/>
	<rect x="11" y="256" width="1" height="3"/>
	<rect x="11" y="268" width="1" height="3"/>
	<rect x="11" y="262" width="1" height="3"/>
	<rect x="11" y="184" width="1" height="3"/>
	<rect x="11" y="160" width="1" height="3"/>
	<rect x="11" y="190" width="1" height="3"/>
	<rect x="11" y="178" width="1" height="3"/>
	<rect x="11" y="220" width="1" height="3"/>
	<rect x="11" y="166" width="1" height="3"/>
	<rect x="11" y="208" width="1" height="3"/>
	<rect x="11" y="196" width="1" height="3"/>
	<rect x="11" y="214" width="1" height="3"/>
	<rect x="11" y="202" width="1" height="3"/>
	<rect x="11" y="82" width="1" height="3"/>
	<polygon points="12,274.3 11,274.3 11,275.8 11.5,275.8 11.5,276.3 13,276.3 13,275.3 12,275.3 	"/>
	<rect x="58" y="244" width="1" height="3"/>
	<rect x="58" y="154" width="1" height="3"/>
	<rect x="58" y="142" width="1" height="3"/>
	<rect x="58" y="148" width="1" height="3"/>
	<rect x="58" y="130" width="1" height="3"/>
	<rect x="58" y="160" width="1" height="3"/>
	<rect x="58" y="250" width="1" height="3"/>
	<rect x="58" y="238" width="1" height="3"/>
	<rect x="58" y="82" width="1" height="3"/>
	<rect x="58" y="232" width="1" height="3"/>
	<rect x="58" y="166" width="1" height="3"/>
	<rect x="58" y="136" width="1" height="3"/>
	<rect x="58" y="196" width="1" height="3"/>
	<rect x="58" y="178" width="1" height="3"/>
	<rect x="58" y="190" width="1" height="3"/>
	<rect x="58" y="256" width="1" height="3"/>
	<rect x="58" y="184" width="1" height="3"/>
	<rect x="58" y="268" width="1" height="3"/>
	<polygon points="59,172 58,172 58,174 58,175 61,175 61,174 59,174 	"/>
	<rect x="58" y="202" width="1" height="3"/>
	<rect x="58" y="76" width="1" height="3"/>
	<rect x="58" y="220" width="1" height="3"/>
	<rect x="58" y="214" width="1" height="3"/>
	<rect x="58" y="208" width="1" height="3"/>
	<rect x="58" y="262" width="1" height="3"/>
	<rect x="58" y="46" width="1" height="3"/>
	<rect x="58" y="106" width="1" height="3"/>
	<rect x="58" y="100" width="1" height="3"/>
	<rect x="58" y="118" width="1" height="3"/>
	<rect x="58" y="52" width="1" height="3"/>
	<rect x="58" y="112" width="1" height="3"/>
	<rect x="58" y="40" width="1" height="3"/>
	<rect x="58" y="58" width="1" height="3"/>
	<rect x="58" y="64" width="1" height="3"/>
	<rect x="58" y="88" width="1" height="3"/>
	<polygon points="59,70 58,70 58,73 58,74 61,74 61,73 59,73 	"/>
	<rect x="58" y="34" width="1" height="3"/>
	<rect x="58" y="94" width="1" height="3"/>
	<rect x="58" y="28" width="1" height="3"/>
	<polygon points="59,274 58,274 58,275 58,276 61,276 61,275 59,275 	"/>
	<rect x="105" y="184" width="1" height="3"/>
	<rect x="105" y="202" width="1" height="3"/>
	<rect x="105" y="178" width="1" height="3"/>
	<rect x="105" y="208" width="1" height="3"/>
	<rect x="105" y="190" width="1" height="3"/>
	<rect x="105" y="220" width="1" height="3"/>
	<rect x="105" y="268" width="1" height="3"/>
	<rect x="105" y="238" width="1" height="3"/>
	<rect x="105" y="244" width="1" height="3"/>
	<rect x="105" y="262" width="1" height="3"/>
	<rect x="105" y="256" width="1" height="3"/>
	<rect x="105" y="250" width="1" height="3"/>
	<rect x="105" y="196" width="1" height="3"/>
	<rect x="105" y="232" width="1" height="3"/>
	<rect x="105" y="214" width="1" height="3"/>
	<rect x="105" y="166" width="1" height="3"/>
	<rect x="105" y="64" width="1" height="3"/>
	<rect x="105" y="82" width="1" height="3"/>
	<polygon points="106,70 105,70 105,73 105,74 108,74 108,73 106,73 	"/>
	<rect x="105" y="76" width="1" height="3"/>
	<rect x="105" y="100" width="1" height="3"/>
	<rect x="105" y="88" width="1" height="3"/>
	<rect x="105" y="94" width="1" height="3"/>
	<rect x="105" y="58" width="1" height="3"/>
	<rect x="105" y="40" width="1" height="3"/>
	<rect x="105" y="34" width="1" height="3"/>
	<rect x="105" y="28" width="1" height="3"/>
	<rect x="105" y="46" width="1" height="3"/>
	<rect x="105" y="106" width="1" height="3"/>
	<rect x="105" y="52" width="1" height="3"/>
	<polygon points="106,172 105,172 105,175 108,175 108,174 106,174 	"/>
	<rect x="105" y="118" width="1" height="3"/>
	<rect x="105" y="112" width="1" height="3"/>
	<rect x="105" y="130" width="1" height="3"/>
	<rect x="105" y="136" width="1" height="3"/>
	<rect x="105" y="160" width="1" height="3"/>
	<rect x="105" y="154" width="1" height="3"/>
	<rect x="105" y="142" width="1" height="3"/>
	<rect x="105" y="148" width="1" height="3"/>
	<polygon points="106,274 105,274 105,276 108,276 108,275 106,275 	"/>
	<rect x="151.8" y="23.2" width="1" height="1.5"/>
	<rect x="152" y="46" width="1" height="3"/>
	<rect x="152" y="34" width="1" height="3"/>
	<rect x="152" y="52" width="1" height="3"/>
	<rect x="152" y="94" width="1" height="3"/>
	<rect x="152" y="58" width="1" height="3"/>
	<rect x="152" y="64" width="1" height="3"/>
	<rect x="152" y="40" width="1" height="3"/>
	<rect x="152" y="76" width="1" height="3"/>
	<rect x="152" y="88" width="1" height="3"/>
	<rect x="152" y="70" width="1" height="3"/>
	<rect x="152" y="82" width="1" height="3"/>
	<rect x="152" y="28" width="1" height="3"/>
	<polygon points="153,172 152,172 152,175 153,175 156,175 156,174 153,174 	"/>
	<rect x="152" y="214" width="1" height="3"/>
	<rect x="152" y="232" width="1" height="3"/>
	<rect x="152" y="190" width="1" height="3"/>
	<rect x="152" y="220" width="1" height="3"/>
	<rect x="152" y="196" width="1" height="3"/>
	<rect x="152" y="208" width="1" height="3"/>
	<rect x="152" y="100" width="1" height="3"/>
	<rect x="152" y="226" width="1" height="3"/>
	<rect x="152" y="262" width="1" height="3"/>
	<rect x="152" y="256" width="1" height="3"/>
	<rect x="152" y="268" width="1" height="3"/>
	<rect x="152" y="250" width="1" height="3"/>
	<rect x="152" y="244" width="1" height="3"/>
	<rect x="152" y="238" width="1" height="3"/>
	<rect x="152" y="202" width="1" height="3"/>
	<rect x="152" y="142" width="1" height="3"/>
	<rect x="152" y="130" width="1" height="3"/>
	<rect x="152" y="136" width="1" height="3"/>
	<rect x="152" y="184" width="1" height="3"/>
	<rect x="152" y="118" width="1" height="3"/>
	<rect x="152" y="106" width="1" height="3"/>
	<rect x="152" y="112" width="1" height="3"/>
	<polygon points="152,124 152,127 153,127 153,125 156,125 156,124 153,124 	"/>
	<rect x="152" y="148" width="1" height="3"/>
	<rect x="152" y="178" width="1" height="3"/>
	<rect x="152" y="166" width="1" height="3"/>
	<rect x="152" y="154" width="1" height="3"/>
	<rect x="152" y="160" width="1" height="3"/>
	<rect x="151.8" y="274.3" width="1" height="1.5"/>
	<rect x="198.7" y="23.2" width="1" height="1.5"/>
	<rect x="199" y="160" width="1" height="3"/>
	<rect x="199" y="178" width="1" height="3"/>
	<rect x="199" y="154" width="1" height="3"/>
	<rect x="199" y="172" width="1" height="3"/>
	<rect x="199" y="130" width="1" height="3"/>
	<rect x="199" y="184" width="1" height="3"/>
	<rect x="199" y="136" width="1" height="3"/>
	<rect x="199" y="142" width="1" height="3"/>
	<rect x="199" y="148" width="1" height="3"/>
	<rect x="199" y="220" width="1" height="3"/>
	<rect x="199" y="226" width="1" height="3"/>
	<rect x="199" y="214" width="1" height="3"/>
	<rect x="199" y="196" width="1" height="3"/>
	<rect x="199" y="208" width="1" height="3"/>
	<rect x="199" y="190" width="1" height="3"/>
	<rect x="199" y="202" width="1" height="3"/>
	<rect x="199" y="40" width="1" height="3"/>
	<rect x="199" y="58" width="1" height="3"/>
	<rect x="199" y="52" width="1" height="3"/>
	<rect x="199" y="64" width="1" height="3"/>
	<rect x="199" y="76" width="1" height="3"/>
	<rect x="199" y="70" width="1" height="3"/>
	<rect x="199" y="28" width="1" height="3"/>
	<rect x="199" y="46" width="1" height="3"/>
	<rect x="199" y="34" width="1" height="3"/>
	<rect x="199" y="124" width="1" height="3"/>
	<rect x="199" y="112" width="1" height="3"/>
	<rect x="199" y="82" width="1" height="3"/>
	<rect x="199" y="118" width="1" height="3"/>
	<rect x="199" y="106" width="1" height="3"/>
	<rect x="199" y="100" width="1" height="3"/>
	<rect x="199" y="88" width="1" height="3"/>
	<rect x="199" y="94" width="1" height="3"/>
	<rect x="199" y="166" width="1" height="3"/>
	<rect x="199" y="256" width="1" height="3"/>
	<rect x="199" y="262" width="1" height="3"/>
	<rect x="199" y="250" width="1" height="3"/>
	<rect x="199" y="244" width="1" height="3"/>
	<rect x="199" y="238" width="1" height="3"/>
	<rect x="199" y="268" width="1" height="3"/>
	<rect x="199" y="232" width="1" height="3"/>
	<rect x="198.7" y="274.3" width="1" height="1.5"/>
	<rect x="245.7" y="23.2" width="1" height="1.5"/>
	<rect x="246" y="172" width="1" height="3"/>
	<rect x="246" y="166" width="1" height="3"/>
	<rect x="246" y="178" width="1" height="3"/>
	<rect x="246" y="184" width="1" height="3"/>
	<rect x="246" y="148" width="1" height="3"/>
	<rect x="246" y="190" width="1" height="3"/>
	<rect x="246" y="154" width="1" height="3"/>
	<rect x="246" y="142" width="1" height="3"/>
	<rect x="246" y="160" width="1" height="3"/>
	<rect x="246" y="232" width="1" height="3"/>
	<rect x="246" y="226" width="1" height="3"/>
	<rect x="246" y="220" width="1" height="3"/>
	<rect x="246" y="238" width="1" height="3"/>
	<rect x="246" y="196" width="1" height="3"/>
	<rect x="246" y="202" width="1" height="3"/>
	<rect x="246" y="214" width="1" height="3"/>
	<rect x="246" y="208" width="1" height="3"/>
	<rect x="246" y="106" width="1" height="3"/>
	<rect x="246" y="28" width="1" height="3"/>
	<rect x="246" y="268" width="1" height="3"/>
	<rect x="246" y="34" width="1" height="3"/>
	<rect x="246" y="244" width="1" height="3"/>
	<rect x="246" y="250" width="1" height="3"/>
	<rect x="246" y="40" width="1" height="3"/>
	<rect x="246" y="64" width="1" height="3"/>
	<rect x="246" y="58" width="1" height="3"/>
	<rect x="246" y="52" width="1" height="3"/>
	<rect x="246" y="46" width="1" height="3"/>
	<rect x="246" y="256" width="1" height="3"/>
	<rect x="246" y="76" width="1" height="3"/>
	<rect x="246" y="124" width="1" height="3"/>
	<rect x="246" y="262" width="1" height="3"/>
	<rect x="246" y="118" width="1" height="3"/>
	<rect x="246" y="136" width="1" height="3"/>
	<rect x="246" y="130" width="1" height="3"/>
	<rect x="246" y="112" width="1" height="3"/>
	<rect x="246" y="88" width="1" height="3"/>
	<rect x="246" y="82" width="1" height="3"/>
	<rect x="246" y="100" width="1" height="3"/>
	<rect x="246" y="70" width="1" height="3"/>
	<rect x="246" y="94" width="1" height="3"/>
	<rect x="245.7" y="274.3" width="1" height="1.5"/>
	<rect x="293" y="238" width="1" height="3"/>
	<rect x="293" y="100" width="1" height="3"/>
	<rect x="293" y="88" width="1" height="3"/>
	<rect x="293" y="148" width="1" height="3"/>
	<rect x="293" y="94" width="1" height="3"/>
	<rect x="293" y="112" width="1" height="3"/>
	<rect x="293" y="142" width="1" height="3"/>
	<rect x="293" y="136" width="1" height="3"/>
	<rect x="293" y="118" width="1" height="3"/>
	<rect x="293" y="130" width="1" height="3"/>
	<rect x="293" y="106" width="1" height="3"/>
	<rect x="293" y="46" width="1" height="3"/>
	<rect x="293" y="82" width="1" height="3"/>
	<rect x="293" y="34" width="1" height="3"/>
	<rect x="293" y="52" width="1" height="3"/>
	<rect x="293" y="40" width="1" height="3"/>
	<rect x="293" y="70" width="1" height="3"/>
	<rect x="293" y="76" width="1" height="3"/>
	<rect x="293" y="64" width="1" height="3"/>
	<rect x="293" y="58" width="1" height="3"/>
	<rect x="293" y="190" width="1" height="3"/>
	<rect x="293" y="214" width="1" height="3"/>
	<rect x="293" y="154" width="1" height="3"/>
	<rect x="293" y="226" width="1" height="3"/>
	<rect x="293" y="220" width="1" height="3"/>
	<rect x="293" y="232" width="1" height="3"/>
	<rect x="293" y="268" width="1" height="3"/>
	<rect x="293" y="262" width="1" height="3"/>
	<rect x="293" y="256" width="1" height="3"/>
	<rect x="293" y="250" width="1" height="3"/>
	<rect x="293" y="244" width="1" height="3"/>
	<polygon points="293,174 290,174 290,175 293,175 294,175 294,172 293,172 	"/>
	<rect x="293" y="178" width="1" height="3"/>
	<rect x="293" y="166" width="1" height="3"/>
	<rect x="293" y="160" width="1" height="3"/>
	<rect x="293" y="202" width="1" height="3"/>
	<rect x="293" y="208" width="1" height="3"/>
	<rect x="293" y="196" width="1" height="3"/>
	<rect x="293" y="184" width="1" height="3"/>
	<rect x="293" y="28" width="1" height="3"/>
	<polygon points="293,275 290,275 290,276 293,276 294,276 294,274 293,274 	"/>
	<polygon points="340,73 338,73 338,74 341,74 341,73 341,70 340,70 	"/>
	<rect x="340" y="76" width="1" height="3"/>
	<rect x="340" y="142" width="1" height="3"/>
	<rect x="340" y="88" width="1" height="3"/>
	<rect x="340" y="64" width="1" height="3"/>
	<rect x="340" y="148" width="1" height="3"/>
	<rect x="340" y="100" width="1" height="3"/>
	<rect x="340" y="166" width="1" height="3"/>
	<rect x="340" y="154" width="1" height="3"/>
	<rect x="340" y="160" width="1" height="3"/>
	<rect x="340" y="82" width="1" height="3"/>
	<rect x="340" y="52" width="1" height="3"/>
	<rect x="340" y="40" width="1" height="3"/>
	<rect x="340" y="46" width="1" height="3"/>
	<rect x="340" y="58" width="1" height="3"/>
	<rect x="340" y="34" width="1" height="3"/>
	<rect x="340" y="112" width="1" height="3"/>
	<rect x="340" y="118" width="1" height="3"/>
	<rect x="340" y="28" width="1" height="3"/>
	<rect x="340" y="106" width="1" height="3"/>
	<rect x="340" y="94" width="1" height="3"/>
	<rect x="340" y="268" width="1" height="3"/>
	<rect x="340" y="178" width="1" height="3"/>
	<rect x="340" y="256" width="1" height="3"/>
	<rect x="340" y="184" width="1" height="3"/>
	<rect x="340" y="262" width="1" height="3"/>
	<rect x="340" y="232" width="1" height="3"/>
	<rect x="340" y="130" width="1" height="3"/>
	<rect x="340" y="250" width="1" height="3"/>
	<rect x="340" y="238" width="1" height="3"/>
	<polygon points="340,174 338,174 338,175 341,175 341,174 341,172 340,172 	"/>
	<rect x="340" y="214" width="1" height="3"/>
	<rect x="340" y="220" width="1" height="3"/>
	<rect x="340" y="136" width="1" height="3"/>
	<rect x="340" y="190" width="1" height="3"/>
	<rect x="340" y="196" width="1" height="3"/>
	<rect x="340" y="208" width="1" height="3"/>
	<rect x="340" y="202" width="1" height="3"/>
	<rect x="340" y="244" width="1" height="3"/>
	<polygon points="340,275 338,275 338,276 341,276 341,275 341,274 340,274 	"/>
	<polygon points="385,23 385,24 386,24 386,25 387,25 387,23 	"/>
	<rect x="386" y="202" width="1" height="3"/>
	<rect x="386" y="196" width="1" height="3"/>
	<rect x="386" y="190" width="1" height="3"/>
	<rect x="386" y="34" width="1" height="3"/>
	<rect x="386" y="154" width="1" height="3"/>
	<rect x="386" y="268" width="1" height="3"/>
	<rect x="386" y="88" width="1" height="3"/>
	<rect x="386" y="94" width="1" height="3"/>
	<rect x="386" y="160" width="1" height="3"/>
	<rect x="386" y="184" width="1" height="3"/>
	<rect x="386" y="82" width="1" height="3"/>
	<polygon points="386,174 385,174 385,175 387,175 387,172 386,172 	"/>
	<rect x="386" y="178" width="1" height="3"/>
	<rect x="386" y="40" width="1" height="3"/>
	<rect x="386" y="46" width="1" height="3"/>
	<rect x="386" y="70" width="1" height="3"/>
	<rect x="386" y="244" width="1" height="3"/>
	<rect x="386" y="52" width="1" height="3"/>
	<rect x="386" y="58" width="1" height="3"/>
	<rect x="386" y="64" width="1" height="3"/>
	<rect x="386" y="226" width="1" height="3"/>
	<rect x="386" y="238" width="1" height="3"/>
	<rect x="386" y="220" width="1" height="3"/>
	<rect x="386" y="214" width="1" height="3"/>
	<rect x="386" y="208" width="1" height="3"/>
	<rect x="386" y="232" width="1" height="3"/>
	<rect x="386" y="76" width="1" height="3"/>
	<rect x="386" y="166" width="1" height="3"/>
	<rect x="386" y="256" width="1" height="3"/>
	<rect x="386" y="28" width="1" height="3"/>
	<rect x="386" y="136" width="1" height="3"/>
	<rect x="386" y="118" width="1" height="3"/>
	<rect x="386" y="100" width="1" height="3"/>
	<rect x="386" y="250" width="1" height="3"/>
	<rect x="386" y="130" width="1" height="3"/>
	<rect x="386" y="262" width="1" height="3"/>
	<rect x="386" y="112" width="1" height="3"/>
	<rect x="386" y="106" width="1" height="3"/>
	<rect x="386" y="142" width="1" height="3"/>
	<rect x="386" y="148" width="1" height="3"/>
	<polygon points="386,275 385,275 385,276 387,276 387,274 386,274 	"/>
	<rect x="320" y="275" width="3" height="1"/>
	<rect x="314" y="275" width="3" height="1"/>
	<rect x="165" y="275" width="3" height="1"/>
	<rect x="189" y="275" width="3" height="1"/>
	<rect x="40" y="275" width="3" height="1"/>
	<rect x="302" y="275" width="3" height="1"/>
	<rect x="159" y="275" width="3" height="1"/>
	<rect x="153" y="275" width="3" height="1"/>
	<rect x="308" y="275" width="3" height="1"/>
	<rect x="332" y="275" width="3" height="1"/>
	<rect x="76" y="275" width="3" height="1"/>
	<rect x="46" y="275" width="3" height="1"/>
	<rect x="326" y="275" width="3" height="1"/>
	<rect x="177" y="275" width="3" height="1"/>
	<rect x="82" y="275" width="3" height="1"/>
	<rect x="350" y="275" width="3" height="1"/>
	<rect x="70" y="275" width="3" height="1"/>
	<rect x="52" y="275" width="3" height="1"/>
	<rect x="171" y="275" width="3" height="1"/>
	<rect x="64" y="275" width="3" height="1"/>
	<rect x="242" y="275" width="3" height="1"/>
	<rect x="183" y="275" width="3" height="1"/>
	<rect x="16" y="275" width="3" height="1"/>
	<rect x="219" y="275" width="3" height="1"/>
	<rect x="201" y="275" width="3" height="1"/>
	<rect x="28" y="275" width="3" height="1"/>
	<rect x="129" y="275" width="3" height="1"/>
	<rect x="135" y="275" width="3" height="1"/>
	<rect x="260" y="275" width="3" height="1"/>
	<rect x="362" y="275" width="3" height="1"/>
	<rect x="99" y="275" width="3" height="1"/>
	<rect x="123" y="275" width="3" height="1"/>
	<rect x="344" y="275" width="3" height="1"/>
	<rect x="213" y="275" width="3" height="1"/>
	<rect x="22" y="275" width="3" height="1"/>
	<rect x="117" y="275" width="3" height="1"/>
	<rect x="111" y="275" width="3" height="1"/>
	<rect x="207" y="275" width="3" height="1"/>
	<rect x="368" y="275" width="3" height="1"/>
	<rect x="356" y="275" width="3" height="1"/>
	<rect x="195" y="275" width="3" height="1"/>
	<rect x="296" y="275" width="3" height="1"/>
	<rect x="231" y="275" width="2" height="1"/>
	<rect x="254" y="275" width="3" height="1"/>
	<rect x="87" y="275" width="3" height="1"/>
	<rect x="284" y="275" width="3" height="1"/>
	<rect x="34" y="275" width="3" height="1"/>
	<rect x="236" y="275" width="3" height="1"/>
	<rect x="379" y="275" width="3" height="1"/>
	<rect x="278" y="275" width="3" height="1"/>
	<rect x="141" y="275" width="3" height="1"/>
	<rect x="272" y="275" width="3" height="1"/>
	<rect x="248" y="275" width="3" height="1"/>
	<rect x="225" y="275" width="3" height="1"/>
	<rect x="266" y="275" width="3" height="1"/>
	<rect x="93" y="275" width="3" height="1"/>
	<rect x="147" y="275" width="3" height="1"/>
	<rect x="374" y="275" width="3" height="1"/>
	<rect x="11.5" y="224.8" width="1.5" height="1"/>
	<rect x="368" y="225" width="3" height="1"/>
	<rect x="278" y="225" width="3" height="1"/>
	<rect x="147" y="225" width="3" height="1"/>
	<rect x="272" y="225" width="3" height="1"/>
	<rect x="284" y="225" width="3" height="1"/>
	<rect x="99" y="225" width="3" height="1"/>
	<rect x="141" y="225" width="3" height="1"/>
	<polygon points="58,226 58,229 59,229 59,226 61,226 61,225 58,225 	"/>
	<rect x="374" y="225" width="3" height="1"/>
	<rect x="93" y="225" width="3" height="1"/>
	<rect x="195" y="225" width="3" height="1"/>
	<rect x="266" y="225" width="3" height="1"/>
	<rect x="87" y="225" width="3" height="1"/>
	<rect x="34" y="225" width="3" height="1"/>
	<rect x="225" y="225" width="3" height="1"/>
	<rect x="296" y="225" width="3" height="1"/>
	<rect x="28" y="225" width="3" height="1"/>
	<rect x="254" y="225" width="3" height="1"/>
	<rect x="123" y="225" width="3" height="1"/>
	<rect x="22" y="225" width="3" height="1"/>
	<rect x="207" y="225" width="3" height="1"/>
	<rect x="344" y="225" width="3" height="1"/>
	<rect x="16" y="225" width="3" height="1"/>
	<rect x="260" y="225" width="3" height="1"/>
	<rect x="213" y="225" width="3" height="1"/>
	<rect x="350" y="225" width="3" height="1"/>
	<rect x="111" y="225" width="3" height="1"/>
	<rect x="231" y="225" width="2" height="1"/>
	<rect x="362" y="225" width="3" height="1"/>
	<rect x="201" y="225" width="3" height="1"/>
	<rect x="356" y="225" width="3" height="1"/>
	<rect x="135" y="225" width="3" height="1"/>
	<polygon points="105,226 105,229 106,229 106,226 108,226 108,225 105,225 	"/>
	<rect x="219" y="225" width="3" height="1"/>
	<rect x="129" y="225" width="3" height="1"/>
	<rect x="117" y="225" width="3" height="1"/>
	<rect x="320" y="225" width="3" height="1"/>
	<rect x="76" y="225" width="3" height="1"/>
	<rect x="326" y="225" width="3" height="1"/>
	<rect x="165" y="225" width="3" height="1"/>
	<rect x="332" y="225" width="3" height="1"/>
	<rect x="242" y="225" width="3" height="1"/>
	<rect x="171" y="225" width="3" height="1"/>
	<rect x="52" y="225" width="3" height="1"/>
	<rect x="159" y="225" width="3" height="1"/>
	<rect x="290" y="225" width="3" height="1"/>
	<rect x="302" y="225" width="3" height="1"/>
	<rect x="64" y="225" width="3" height="1"/>
	<rect x="248" y="225" width="3" height="1"/>
	<rect x="153" y="225" width="3" height="1"/>
	<rect x="314" y="225" width="3" height="1"/>
	<rect x="189" y="225" width="3" height="1"/>
	<rect x="70" y="225" width="3" height="1"/>
	<rect x="308" y="225" width="3" height="1"/>
	<rect x="379" y="225" width="3" height="1"/>
	<polygon points="338,226 340,226 340,229 341,229 341,226 341,225 338,225 	"/>
	<rect x="183" y="225" width="3" height="1"/>
	<rect x="82" y="225" width="3" height="1"/>
	<rect x="177" y="225" width="3" height="1"/>
	<rect x="236" y="225" width="3" height="1"/>
	<rect x="46" y="225" width="3" height="1"/>
	<rect x="40" y="225" width="3" height="1"/>
	<rect x="385.4" y="224.8" width="1.5" height="1"/>
	<rect x="379" y="174" width="3" height="1"/>
	<rect x="64" y="174" width="3" height="1"/>
	<rect x="70" y="174" width="3" height="1"/>
	<rect x="350" y="174" width="3" height="1"/>
	<rect x="111" y="174" width="3" height="1"/>
	<rect x="231" y="174" width="2" height="1"/>
	<rect x="87" y="174" width="3" height="1"/>
	<rect x="16" y="174" width="3" height="1"/>
	<rect x="374" y="174" width="3" height="1"/>
	<rect x="242" y="174" width="3" height="1"/>
	<rect x="93" y="174" width="3" height="1"/>
	<rect x="368" y="174" width="3" height="1"/>
	<rect x="236" y="174" width="3" height="1"/>
	<rect x="219" y="174" width="3" height="1"/>
	<rect x="99" y="174" width="3" height="1"/>
	<rect x="356" y="174" width="3" height="1"/>
	<rect x="248" y="174" width="3" height="1"/>
	<rect x="225" y="174" width="3" height="1"/>
	<rect x="82" y="174" width="3" height="1"/>
	<rect x="362" y="174" width="3" height="1"/>
	<rect x="76" y="174" width="3" height="1"/>
	<rect x="129" y="174" width="3" height="1"/>
	<rect x="34" y="174" width="3" height="1"/>
	<rect x="278" y="174" width="3" height="1"/>
	<rect x="52" y="174" width="3" height="1"/>
	<rect x="195" y="174" width="3" height="1"/>
	<rect x="28" y="174" width="3" height="1"/>
	<rect x="314" y="174" width="3" height="1"/>
	<rect x="284" y="174" width="3" height="1"/>
	<rect x="296" y="174" width="3" height="1"/>
	<rect x="183" y="174" width="3" height="1"/>
	<rect x="189" y="174" width="3" height="1"/>
	<rect x="332" y="174" width="3" height="1"/>
	<rect x="213" y="174" width="3" height="1"/>
	<rect x="40" y="174" width="3" height="1"/>
	<rect x="171" y="174" width="3" height="1"/>
	<rect x="165" y="174" width="3" height="1"/>
	<rect x="320" y="174" width="3" height="1"/>
	<rect x="46" y="174" width="3" height="1"/>
	<rect x="177" y="174" width="3" height="1"/>
	<rect x="22" y="174" width="3" height="1"/>
	<rect x="147" y="174" width="3" height="1"/>
	<rect x="326" y="174" width="3" height="1"/>
	<rect x="159" y="174" width="3" height="1"/>
	<rect x="308" y="174" width="3" height="1"/>
	<rect x="207" y="174" width="3" height="1"/>
	<rect x="117" y="174" width="3" height="1"/>
	<rect x="344" y="174" width="3" height="1"/>
	<rect x="201" y="174" width="3" height="1"/>
	<rect x="123" y="174" width="3" height="1"/>
	<rect x="266" y="174" width="3" height="1"/>
	<rect x="141" y="174" width="3" height="1"/>
	<rect x="272" y="174" width="3" height="1"/>
	<rect x="254" y="174" width="3" height="1"/>
	<rect x="302" y="174" width="3" height="1"/>
	<rect x="260" y="174" width="3" height="1"/>
	<rect x="135" y="174" width="3" height="1"/>
	<polygon points="11,127 12,127 12,125 13,125 13,124 11,124 	"/>
	<rect x="52" y="124" width="3" height="1"/>
	<rect x="46" y="124" width="3" height="1"/>
	<rect x="22" y="124" width="3" height="1"/>
	<polygon points="58,125 58,127 59,127 59,125 61,125 61,124 58,124 	"/>
	<rect x="40" y="124" width="3" height="1"/>
	<rect x="16" y="124" width="3" height="1"/>
	<rect x="34" y="124" width="3" height="1"/>
	<rect x="28" y="124" width="3" height="1"/>
	<rect x="64" y="124" width="3" height="1"/>
	<rect x="171" y="124" width="3" height="1"/>
	<rect x="219" y="124" width="3" height="1"/>
	<rect x="225" y="124" width="3" height="1"/>
	<rect x="207" y="124" width="3" height="1"/>
	<rect x="213" y="124" width="3" height="1"/>
	<rect x="231" y="124" width="2" height="1"/>
	<rect x="248" y="124" width="3" height="1"/>
	<rect x="236" y="124" width="3" height="1"/>
	<rect x="260" y="124" width="3" height="1"/>
	<rect x="242" y="124" width="3" height="1"/>
	<rect x="254" y="124" width="3" height="1"/>
	<rect x="165" y="124" width="3" height="1"/>
	<rect x="159" y="124" width="3" height="1"/>
	<rect x="147" y="124" width="3" height="1"/>
	<rect x="177" y="124" width="3" height="1"/>
	<rect x="189" y="124" width="3" height="1"/>
	<rect x="195" y="124" width="3" height="1"/>
	<rect x="201" y="124" width="3" height="1"/>
	<rect x="183" y="124" width="3" height="1"/>
	<polygon points="338,125 340,125 340,127 341,127 341,125 341,124 338,124 	"/>
	<rect x="344" y="124" width="3" height="1"/>
	<rect x="356" y="124" width="3" height="1"/>
	<rect x="350" y="124" width="3" height="1"/>
	<rect x="141" y="124" width="3" height="1"/>
	<rect x="266" y="124" width="3" height="1"/>
	<rect x="374" y="124" width="3" height="1"/>
	<rect x="379" y="124" width="3" height="1"/>
	<rect x="332" y="124" width="3" height="1"/>
	<rect x="362" y="124" width="3" height="1"/>
	<rect x="368" y="124" width="3" height="1"/>
	<rect x="296" y="124" width="3" height="1"/>
	<rect x="278" y="124" width="3" height="1"/>
	<rect x="326" y="124" width="3" height="1"/>
	<rect x="272" y="124" width="3" height="1"/>
	<polygon points="290,124 290,125 293,125 293,127 294,127 294,124 293,124 	"/>
	<rect x="320" y="124" width="3" height="1"/>
	<rect x="314" y="124" width="3" height="1"/>
	<rect x="308" y="124" width="3" height="1"/>
	<rect x="302" y="124" width="3" height="1"/>
	<rect x="284" y="124" width="3" height="1"/>
	<rect x="93" y="124" width="3" height="1"/>
	<rect x="87" y="124" width="3" height="1"/>
	<rect x="123" y="124" width="3" height="1"/>
	<rect x="76" y="124" width="3" height="1"/>
	<rect x="99" y="124" width="3" height="1"/>
	<rect x="129" y="124" width="3" height="1"/>
	<rect x="70" y="124" width="3" height="1"/>
	<rect x="111" y="124" width="3" height="1"/>
	<rect x="135" y="124" width="3" height="1"/>
	<rect x="117" y="124" width="3" height="1"/>
	<polygon points="105,127 106,127 106,125 108,125 108,124 105,124 	"/>
	<rect x="82" y="124" width="3" height="1"/>
	<polygon points="385,125 386,125 386,127 387,127 387,124 385,124 	"/>
	<rect x="11.5" y="73.2" width="1.5" height="1"/>
	<rect x="254" y="73" width="3" height="1"/>
	<rect x="93" y="73" width="3" height="1"/>
	<rect x="99" y="73" width="3" height="1"/>
	<rect x="374" y="73" width="3" height="1"/>
	<rect x="248" y="73" width="3" height="1"/>
	<rect x="272" y="73" width="3" height="1"/>
	<rect x="368" y="73" width="3" height="1"/>
	<rect x="266" y="73" width="3" height="1"/>
	<rect x="70" y="73" width="3" height="1"/>
	<rect x="260" y="73" width="3" height="1"/>
	<rect x="225" y="73" width="3" height="1"/>
	<rect x="290" y="73" width="3" height="1"/>
	<rect x="111" y="73" width="3" height="1"/>
	<rect x="219" y="73" width="3" height="1"/>
	<rect x="236" y="73" width="3" height="1"/>
	<rect x="242" y="73" width="3" height="1"/>
	<rect x="231" y="73" width="2" height="1"/>
	<rect x="379" y="73" width="3" height="1"/>
	<rect x="302" y="73" width="3" height="1"/>
	<rect x="320" y="73" width="3" height="1"/>
	<rect x="82" y="73" width="3" height="1"/>
	<rect x="350" y="73" width="3" height="1"/>
	<rect x="314" y="73" width="3" height="1"/>
	<rect x="332" y="73" width="3" height="1"/>
	<rect x="356" y="73" width="3" height="1"/>
	<rect x="344" y="73" width="3" height="1"/>
	<rect x="326" y="73" width="3" height="1"/>
	<rect x="308" y="73" width="3" height="1"/>
	<rect x="284" y="73" width="3" height="1"/>
	<rect x="296" y="73" width="3" height="1"/>
	<rect x="64" y="73" width="3" height="1"/>
	<rect x="362" y="73" width="3" height="1"/>
	<rect x="278" y="73" width="3" height="1"/>
	<rect x="87" y="73" width="3" height="1"/>
	<rect x="76" y="73" width="3" height="1"/>
	<rect x="28" y="73" width="3" height="1"/>
	<rect x="34" y="73" width="3" height="1"/>
	<rect x="22" y="73" width="3" height="1"/>
	<rect x="46" y="73" width="3" height="1"/>
	<rect x="183" y="73" width="3" height="1"/>
	<rect x="171" y="73" width="3" height="1"/>
	<rect x="201" y="73" width="3" height="1"/>
	<rect x="153" y="73" width="3" height="1"/>
	<rect x="129" y="73" width="3" height="1"/>
	<rect x="195" y="73" width="3" height="1"/>
	<rect x="189" y="73" width="3" height="1"/>
	<rect x="165" y="73" width="3" height="1"/>
	<rect x="52" y="73" width="3" height="1"/>
	<rect x="159" y="73" width="3" height="1"/>
	<rect x="123" y="73" width="3" height="1"/>
	<rect x="40" y="73" width="3" height="1"/>
	<rect x="135" y="73" width="3" height="1"/>
	<rect x="213" y="73" width="3" height="1"/>
	<rect x="16" y="73" width="3" height="1"/>
	<rect x="141" y="73" width="3" height="1"/>
	<rect x="177" y="73" width="3" height="1"/>
	<rect x="117" y="73" width="3" height="1"/>
	<rect x="147" y="73" width="3" height="1"/>
	<rect x="207" y="73" width="3" height="1"/>
	<rect x="385.4" y="73.2" width="1.5" height="1"/>
	<polygon points="11.5,23.2 11,23.2 11,24.7 12,24.7 12,23.7 13,23.7 13,22.7 11.5,22.7 	"/>
	<rect x="82" y="23" width="3" height="1"/>
	<polygon points="338,24 340,24 340,25 341,25 341,24 341,23 338,23 	"/>
	<rect x="320" y="23" width="3" height="1"/>
	<rect x="326" y="23" width="3" height="1"/>
	<rect x="46" y="23" width="3" height="1"/>
	<rect x="165" y="23" width="3" height="1"/>
	<rect x="76" y="23" width="3" height="1"/>
	<rect x="332" y="23" width="3" height="1"/>
	<rect x="64" y="23" width="3" height="1"/>
	<rect x="147" y="23" width="3" height="1"/>
	<rect x="368" y="23" width="3" height="1"/>
	<rect x="374" y="23" width="3" height="1"/>
	<rect x="153" y="23" width="3" height="1"/>
	<rect x="362" y="23" width="3" height="1"/>
	<rect x="159" y="23" width="3" height="1"/>
	<rect x="379" y="23" width="3" height="1"/>
	<rect x="314" y="23" width="3" height="1"/>
	<rect x="141" y="23" width="3" height="1"/>
	<rect x="350" y="23" width="3" height="1"/>
	<rect x="344" y="23" width="3" height="1"/>
	<polygon points="58,24 58,25 59,25 59,24 61,24 61,23 58,23 	"/>
	<rect x="356" y="23" width="3" height="1"/>
	<rect x="70" y="23" width="3" height="1"/>
	<rect x="52" y="23" width="3" height="1"/>
	<rect x="129" y="23" width="3" height="1"/>
	<rect x="171" y="23" width="3" height="1"/>
	<rect x="248" y="23" width="3" height="1"/>
	<rect x="242" y="23" width="3" height="1"/>
	<rect x="260" y="23" width="3" height="1"/>
	<rect x="201" y="23" width="3" height="1"/>
	<rect x="254" y="23" width="3" height="1"/>
	<rect x="195" y="23" width="3" height="1"/>
	<rect x="22" y="23" width="3" height="1"/>
	<rect x="117" y="23" width="3" height="1"/>
	<rect x="236" y="23" width="3" height="1"/>
	<rect x="99" y="23" width="3" height="1"/>
	<rect x="219" y="23" width="3" height="1"/>
	<rect x="207" y="23" width="3" height="1"/>
	<rect x="213" y="23" width="3" height="1"/>
	<rect x="111" y="23" width="3" height="1"/>
	<rect x="225" y="23" width="3" height="1"/>
	<rect x="231" y="23" width="2" height="1"/>
	<polygon points="105,25 106,25 106,24 108,24 108,23 105,23 	"/>
	<rect x="16" y="23" width="3" height="1"/>
	<rect x="266" y="23" width="3" height="1"/>
	<rect x="34" y="23" width="3" height="1"/>
	<rect x="296" y="23" width="3" height="1"/>
	<rect x="87" y="23" width="3" height="1"/>
	<polygon points="290,23 290,24 293,24 293,25 294,25 294,23 293,23 	"/>
	<rect x="123" y="23" width="3" height="1"/>
	<rect x="308" y="23" width="3" height="1"/>
	<rect x="302" y="23" width="3" height="1"/>
	<rect x="177" y="23" width="3" height="1"/>
	<rect x="135" y="23" width="3" height="1"/>
	<rect x="93" y="23" width="3" height="1"/>
	<rect x="272" y="23" width="3" height="1"/>
	<rect x="28" y="23" width="3" height="1"/>
	<rect x="284" y="23" width="3" height="1"/>
	<rect x="40" y="23" width="3" height="1"/>
	<rect x="183" y="23" width="3" height="1"/>
	<rect x="189" y="23" width="3" height="1"/>
	<rect x="278" y="23" width="3" height="1"/>
</symbol>
    <symbol id="graph1">
       <path d="M387,48L387,48c-3.3,0-6,2.4-6,5.8c0,0.3,0,0.5,0.1,0.8l-36.3,15.7c-1.1-1.4-2.8-2.2-4.7-2.2h0c-3.3,0-6,2.5-6,5.9
	c0,0.3,0,0.5,0.1,0.8l-36.3,15.6c-1.1-1.4-2.8-2.3-4.7-2.3h0c-3.3,0-6,2.7-6,6c0,0.3,0,0.5,0.1,0.8c-3.4,1.3-6.9,2.6-10.2,3.8
	c-8.7,3.1-17.6,6.3-26.6,11.3c-1.1-1.1-2.6-1.8-4.2-1.8h0c-3.3,0-6,2.8-6,6.1c0,0.7,0.1,1.5,0.4,2.2c-6.4,4.9-12.7,11-18.9,17
	c-6.1,5.9-12.4,12.2-18.5,16.9c-1-0.9-2.4-1.2-3.9-1.2h0c-3.3,0-6,2.5-6,5.8c0,0.6,0.1,1,0.2,1.6c-8.7,4.9-17.5,8-26,11
	c-3.4,1.2-6.9,2.6-10.3,3.9c-1.1-1.5-2.8-2.3-4.8-2.3h0c-3.3,0-6,2.6-6,5.9c0,0.3,0,0.6,0.1,0.9l-36.3,15.6
	c-1.1-1.4-2.8-2.3-4.7-2.3h0c-3.3,0-6,2.7-6,6c0,0.3,0,0.5,0.1,0.8c-3.4,1.3-6.9,2.6-10.2,3.8c-8.7,3.1-17.6,6.3-26.6,11.3
	c-1.1-1.1-2.6-1.8-4.2-1.8h0c-3.3,0-6,2.8-6,6.1c0,0.7,0.1,1.5,0.4,2.1c-10.9,8-24.2,20.4-33.3,29c-1.7,1.6-3.3,3.3-4.7,4.6
	c-0.9-0.6-2.1-0.8-3.3-0.8h0c-3.3,0-6,2.5-6,5.8s2.7,5.9,6,5.9s6-2.7,6-6.1c0-1-0.3-2-0.7-2.8c1.4-1.3,3-2.8,4.7-4.4
	c9.1-8.5,22.2-20.8,33-28.7c1.1,0.9,2.4,1.5,3.9,1.5c3.3,0,6-2.7,6-6c0-0.6-0.1-1.2-0.2-1.7c8.7-4.9,17.5-8,26-11.1
	c3.4-1.2,6.9-2.5,10.3-3.8c1.1,1.5,2.8,2.4,4.8,2.4c3.3,0,6-2.7,6-6c0-0.3,0-0.6-0.1-0.9l36.3-15.6c1.1,1.4,2.8,2.3,4.7,2.3
	c3.3,0,6-2.7,6-6c0-0.3,0-0.5-0.1-0.8c3.4-1.3,6.8-2.6,10.2-3.8c8.7-3.1,17.7-6.3,26.6-11.4c1.1,1.1,2.6,1.7,4.2,1.7
	c3.3,0,6-2.7,6-6c0-0.8-0.1-1.5-0.4-2.1c6.4-4.8,12.7-11,18.9-17c6.1-5.9,12.4-12,18.6-16.7c1,0.9,2.4,1.4,3.9,1.4c3.3,0,6-2.7,6-6
	c0-0.6-0.1-1.2-0.2-1.7c8.7-4.9,17.5-8,26-11.1c3.4-1.2,6.9-2.5,10.3-3.8c1.1,1.5,2.8,2.4,4.8,2.4c3.3,0,6-2.7,6-6
	c0-0.3,0-0.6-0.1-0.9l36.3-15.6c1.1,1.4,2.8,2.3,4.7,2.3c3.3,0,6-2.7,6-6c0-0.3,0-0.6-0.1-0.9l36.3-15.6c1.1,1.4,2.8,2.3,4.7,2.3
	c3.3,0,6-2.4,6-5.8S390.3,48,387,48z"/>
    </symbol>

<symbol id="graph2">
    <path d="M387,105L387,105c-3.3,0-6,2.7-6,6.1c0,1.6,0.6,3,1.6,4.1c-1.7,2.8-3.6,6.3-5.9,10.3c-8.2,14.7-21.1,37.9-31.2,43.6
	c-1-1.9-3-3.1-5.3-3.1h0c-1.8,0-3.3,0.6-4.4,1.7c-6.6-6-13.8-21.5-20.2-35.3c-5.9-12.6-11.4-24.7-17.2-32.1c0.6-0.9,1-2.1,1-3.3
	c0-3.3-2.7-6-6-6h0c-1.5,0-2.8,0.5-3.9,1.4c-8.4-4.8-16.7-3.8-24.9-2.8c-4.2,0.5-8.2,1-12.1,0.8c-0.3-3.1-2.8-5.4-6-5.4h0
	c-2,0-3.8,1-4.9,2.5c-4.3-2-8.6-4.9-12.9-7.6c-7.6-5-15.4-10-23.3-10.7c-0.8-2.4-3-4.1-5.7-4.1h0c-3.3,0-6,2.6-6,5.9
	c0,0.1,0,0.2,0,0.3c-12.9,5.5-25.7,19.7-38.2,34.5c-0.8-0.4-1.7-0.7-2.6-0.7h0c-3.3,0-6,2.7-6,6.1c0,1.3,0.5,2.6,1.2,3.6
	c-7.2,9.4-14.4,21.3-21.5,32.9c-6,9.9-12.2,20.2-18.3,28.7c-0.7-0.3-1.5-0.3-2.3-0.3h0c-3.3,0-6,2.5-6,5.8c0,1.4,0.5,2.6,1.3,3.6
	c-2,2.6-3.9,5.2-5.9,7.9C85,207.5,74.3,222,63.9,228.2c-1.1-1.3-2.8-2.2-4.6-2.2h0c-3.1,0-5.6,2.3-5.9,5.3c-10.1-0.5-22.4-9-31-14.9
	c-1.5-1-2.8-2-4.1-2.8c0.2-0.5,0.2-1,0.2-1.6c0-3.3-2.7-5.9-6-5.9h0c-3.3,0-6,2.6-6,6s2.7,6,6,6c1.7,0,3.2-0.7,4.2-1.8
	c1.2,0.8,2.5,1.7,3.9,2.7c9,6.2,22,15.1,33.1,15.5c0.9,2.2,3,3.8,5.6,3.8c3.3,0,6-2.7,6-6c0-0.4,0-0.7-0.1-1.1
	c11.1-6.6,22.1-21.4,32.8-35.9c1.9-2.6,3.9-5.2,5.8-7.9c0.7,0.3,1.5,0.5,2.3,0.5c3.3,0,6-2.7,6-6c0-1.4-0.5-2.7-1.3-3.8
	c6.2-8.6,12.4-18.9,18.5-28.8c7-11.5,14.1-23.2,21.2-32.5c0.8,0.3,1.6,0.5,2.5,0.5c3.3,0,6-2.7,6-6c0-1.3-0.4-2.5-1.1-3.5
	C170,93.3,182.4,79.4,194.6,74c1.1,1.7,2.9,2.8,5.1,2.8c2.9,0,5.3-2,5.9-4.8c7,0.8,14.1,5.5,21.6,10.3c4.4,2.9,8.9,5.8,13.4,7.9
	c0,0.2,0,0.4,0,0.7c0,3.3,2.7,6,6,6c2.4,0,4.5-1.5,5.5-3.6c4.4,0.3,8.7-0.2,13-0.7c7.8-1,15.3-1.9,22.8,2.3
	c-0.2,0.7-0.4,1.4-0.4,2.1c0,3.3,2.7,6,6,6c1,0,2-0.3,2.8-0.7c5.5,7.3,11.2,19.4,16.7,31.3c7.2,15.6,14.2,30.5,21.5,36.6
	c-0.1,0.4-0.2,0.9-0.2,1.3c0,3.3,2.7,6,6,6c3.2,0,5.9-2.6,6-5.8c11.2-5.6,23.6-27.9,33.1-44.9c2.1-3.8,4.1-7.4,5.8-10.1
	c0.6,0.2,1.3,0.3,1.9,0.3c3.3,0,6-2.7,6-6.1S390.3,105,387,105z"/>
</symbol>

</svg>
